<svg width="31" height="31" viewBox="0 0 31 31" fill="none" xmlns="http://www.w3.org/2000/svg">
<path fill-rule="evenodd" clip-rule="evenodd" d="M9.26437 0.46575C10.8772 0.3915 11.3915 0.375 15.5 0.375C19.6085 0.375 20.1227 0.392875 21.7342 0.46575C23.3457 0.538625 24.4457 0.79575 25.4082 1.16837C26.4161 1.54925 27.3305 2.14462 28.0867 2.91462C28.8567 3.6695 29.4507 4.5825 29.8302 5.59175C30.2042 6.55425 30.46 7.65425 30.5342 9.263C30.6085 10.8786 30.625 11.3929 30.625 15.5C30.625 19.6085 30.6071 20.1227 30.5342 21.7356C30.4614 23.3444 30.2042 24.4444 29.8302 25.4069C29.4507 26.4163 28.8558 27.3308 28.0867 28.0867C27.3305 28.8567 26.4161 29.4507 25.4082 29.8302C24.4457 30.2042 23.3457 30.46 21.737 30.5342C20.1227 30.6085 19.6085 30.625 15.5 30.625C11.3915 30.625 10.8772 30.6071 9.26437 30.5342C7.65562 30.4614 6.55562 30.2042 5.59312 29.8302C4.58377 29.4507 3.66925 28.8557 2.91325 28.0867C2.14377 27.3314 1.54831 26.4173 1.16837 25.4082C0.79575 24.4457 0.54 23.3457 0.46575 21.737C0.3915 20.1214 0.375 19.6071 0.375 15.5C0.375 11.3915 0.392875 10.8772 0.46575 9.26575C0.538625 7.65425 0.79575 6.55425 1.16837 5.59175C1.54887 4.58261 2.14479 3.66856 2.91462 2.91325C3.66956 2.14394 4.58315 1.54848 5.59175 1.16837C6.55425 0.79575 7.65425 0.54 9.263 0.46575H9.26437ZM21.6119 3.18825C20.0169 3.11537 19.5384 3.10025 15.5 3.10025C11.4616 3.10025 10.9831 3.11537 9.38812 3.18825C7.91275 3.25562 7.1125 3.50175 6.579 3.70937C5.87362 3.98437 5.369 4.31025 4.83962 4.83962C4.33781 5.32782 3.95162 5.92214 3.70937 6.579C3.50175 7.1125 3.25562 7.91275 3.18825 9.38812C3.11537 10.9831 3.10025 11.4616 3.10025 15.5C3.10025 19.5384 3.11537 20.0169 3.18825 21.6119C3.25562 23.0872 3.50175 23.8875 3.70937 24.421C3.95137 25.0769 4.33775 25.6722 4.83962 26.1604C5.32775 26.6622 5.92312 27.0486 6.579 27.2906C7.1125 27.4982 7.91275 27.7444 9.38812 27.8117C10.9831 27.8846 11.4602 27.8997 15.5 27.8997C19.5397 27.8997 20.0169 27.8846 21.6119 27.8117C23.0872 27.7444 23.8875 27.4982 24.421 27.2906C25.1264 27.0156 25.631 26.6897 26.1604 26.1604C26.6622 25.6722 27.0486 25.0769 27.2906 24.421C27.4982 23.8875 27.7444 23.0872 27.8117 21.6119C27.8846 20.0169 27.8997 19.5384 27.8997 15.5C27.8997 11.4616 27.8846 10.9831 27.8117 9.38812C27.7444 7.91275 27.4982 7.1125 27.2906 6.579C27.0156 5.87362 26.6897 5.369 26.1604 4.83962C25.6721 4.33785 25.0778 3.95166 24.421 3.70937C23.8875 3.50175 23.0872 3.25562 21.6119 3.18825ZM13.5681 20.1626C14.647 20.6117 15.8484 20.6724 16.967 20.3341C18.0857 19.9959 19.0522 19.2798 19.7015 18.3081C20.3508 17.3364 20.6426 16.1694 20.5271 15.0065C20.4116 13.8436 19.8959 12.7568 19.0681 11.9319C18.5404 11.4045 17.9024 11.0007 17.2 10.7496C16.4975 10.4984 15.7481 10.4061 15.0057 10.4793C14.2633 10.5526 13.5463 10.7895 12.9065 11.1731C12.2666 11.5566 11.7198 12.0773 11.3053 12.6975C10.8908 13.3178 10.619 14.0223 10.5095 14.7602C10.3999 15.4981 10.4553 16.2512 10.6717 16.9651C10.8882 17.679 11.2602 18.3361 11.761 18.889C12.2618 19.4419 12.879 19.8769 13.5681 20.1626ZM10.0027 10.0027C10.7247 9.28084 11.5817 8.70819 12.5249 8.3175C13.4681 7.9268 14.4791 7.72571 15.5 7.72571C16.5209 7.72571 17.5319 7.9268 18.4751 8.3175C19.4183 8.70819 20.2753 9.28084 20.9972 10.0027C21.7192 10.7247 22.2918 11.5817 22.6825 12.5249C23.0732 13.4681 23.2743 14.4791 23.2743 15.5C23.2743 16.5209 23.0732 17.5319 22.6825 18.4751C22.2918 19.4183 21.7192 20.2753 20.9972 20.9972C19.5393 22.4552 17.5619 23.2743 15.5 23.2743C13.4381 23.2743 11.4607 22.4552 10.0027 20.9972C8.54479 19.5393 7.72571 17.5619 7.72571 15.5C7.72571 13.4381 8.54479 11.4607 10.0027 10.0027ZM24.9985 8.8835C25.1774 8.71474 25.3206 8.51181 25.4197 8.28671C25.5187 8.06162 25.5716 7.81893 25.5752 7.57303C25.5788 7.32713 25.533 7.083 25.4405 6.85511C25.3481 6.62722 25.2108 6.4202 25.0369 6.2463C24.863 6.0724 24.656 5.93517 24.4281 5.84271C24.2002 5.75026 23.9561 5.70447 23.7102 5.70805C23.4643 5.71164 23.2216 5.76452 22.9965 5.86358C22.7714 5.96264 22.5685 6.10586 22.3997 6.28475C22.0716 6.63266 21.8919 7.09479 21.8988 7.57303C21.9058 8.05127 22.0989 8.50796 22.4371 8.84616C22.7753 9.18436 23.232 9.37744 23.7102 9.38441C24.1885 9.39138 24.6506 9.2117 24.9985 8.8835Z" fill="white"/>
</svg>
